<svg width="1440" height="1649" viewBox="0 0 1440 1649" fill="none" xmlns="http://www.w3.org/2000/svg">
<path d="M0 0L18.5 16C36.9 32 74 64 111 85.3C147.7 107 185 117 222 112C258.5 107 295 85 332 64C369.2 43 406 21 443 10.7C480 0 517 0 554 26.7C590.8 53 628 107 665 144C701.5 181 738 203 775 218.7C812.3 235 849 245 886 229.3C923.1 213 960 171 997 160C1033.8 149 1071 171 1108 176C1144.6 181 1182 171 1218 154.7C1255.4 139 1292 117 1329 106.7C1366.2 96 1403 96 1422 96H1440V717.5H1421.5C1403.1 717.5 1366 717.5 1329 717.5C1292.3 717.5 1255 717.5 1218 717.5C1181.5 717.5 1145 717.5 1108 717.5C1070.8 717.5 1034 717.5 997 717.5C960 717.5 923 717.5 886 717.5C849.2 717.5 812 717.5 775 717.5C738.5 717.5 702 717.5 665 717.5C627.7 717.5 591 717.5 554 717.5C516.9 717.5 480 717.5 443 717.5C406.2 717.5 369 717.5 332 717.5C295.4 717.5 258 717.5 222 717.5C184.6 717.5 148 717.5 111 717.5C73.8 717.5 37 717.5 18 717.5H0V0Z" fill="#0099FF"/>
<path d="M1440 287H0V1008H1440V287Z" fill="#0099FF"/>
<rect y="835" width="1440" height="814" fill="#0099FF"/>
</svg>
