<?xml version="1.0" standalone="no"?><svg xmlns="http://www.w3.org/2000/svg" viewBox="0 0 1440 320"><path fill="#000b76" fill-opacity="1" d="M0,320L16,288C32,256,64,192,96,170.7C128,149,160,171,192,197.3C224,224,256,256,288,229.3C320,203,352,117,384,85.3C416,53,448,75,480,80C512,85,544,75,576,90.7C608,107,640,149,672,160C704,171,736,149,768,117.3C800,85,832,43,864,21.3C896,0,928,0,960,53.3C992,107,1024,213,1056,261.3C1088,309,1120,299,1152,266.7C1184,235,1216,181,1248,149.3C1280,117,1312,107,1344,128C1376,149,1408,203,1424,229.3L1440,256L1440,320L1424,320C1408,320,1376,320,1344,320C1312,320,1280,320,1248,320C1216,320,1184,320,1152,320C1120,320,1088,320,1056,320C1024,320,992,320,960,320C928,320,896,320,864,320C832,320,800,320,768,320C736,320,704,320,672,320C640,320,608,320,576,320C544,320,512,320,480,320C448,320,416,320,384,320C352,320,320,320,288,320C256,320,224,320,192,320C160,320,128,320,96,320C64,320,32,320,16,320L0,320Z"></path></svg>