<?xml version="1.0" standalone="no"?><svg xmlns="http://www.w3.org/2000/svg" viewBox="0 0 1440 320"><path fill="#a2d9ff" fill-opacity="1" d="M0,128L16,138.7C32,149,64,171,96,181.3C128,192,160,192,192,165.3C224,139,256,85,288,58.7C320,32,352,32,384,74.7C416,117,448,203,480,245.3C512,288,544,288,576,245.3C608,203,640,117,672,106.7C704,96,736,160,768,181.3C800,203,832,181,864,154.7C896,128,928,96,960,112C992,128,1024,192,1056,192C1088,192,1120,128,1152,133.3C1184,139,1216,213,1248,250.7C1280,288,1312,288,1344,266.7C1376,245,1408,203,1424,181.3L1440,160L1440,320L1424,320C1408,320,1376,320,1344,320C1312,320,1280,320,1248,320C1216,320,1184,320,1152,320C1120,320,1088,320,1056,320C1024,320,992,320,960,320C928,320,896,320,864,320C832,320,800,320,768,320C736,320,704,320,672,320C640,320,608,320,576,320C544,320,512,320,480,320C448,320,416,320,384,320C352,320,320,320,288,320C256,320,224,320,192,320C160,320,128,320,96,320C64,320,32,320,16,320L0,320Z"></path></svg>