<svg width="1440" height="424" viewBox="0 0 1440 424" fill="none" xmlns="http://www.w3.org/2000/svg">
<path d="M0 192L16 208C32 224 64 256 96 245.3C128 235 160 165 192 143.5C239 104.5 253.5 161.721 288 192C330.5 229.3 352 245 384 229.3C416 213 439.5 172.7 471.5 167C503.5 161.7 556 113.3 588 108C620 102.3 673.5 142.597 722 116C784 82 819 55.7 851 93C883 130.7 884.5 133 916.5 176C960 208 964.5 245 996.5 245.3C1051 245.3 1042.98 245 1070 213.5C1102 176.2 1134 127 1165 127C1196 127 1239.5 208 1271.5 245.3C1303.5 283 1312 245 1344 224C1376 203 1424 215.3 1440 173V208V320H1424C1408 320 1376 320 1344 320C1312 320 1280 320 1248 320C1216 320 1184 320 1152 320C1120 320 1088 320 1056 320C1024 320 992 320 960 320C928 320 896 320 864 320C832 320 800 320 768 320C736 320 704 320 672 320C640 320 608 320 576 320C544 320 512 320 480 320C448 320 416 320 384 320C352 320 320 320 288 320C256 320 224 320 192 320C160 320 128 320 96 320C64 320 32 320 16 320H0V192Z" fill="#FF5500"/>
<path d="M1440 294H0V424H720H1440V294Z" fill="#FF5500"/>
</svg>
