<?xml version="1.0" standalone="no"?><svg xmlns="http://www.w3.org/2000/svg" viewBox="0 0 1440 320"><path fill="#e7008a" fill-opacity="1" d="M0,96L16,85.3C32,75,64,53,96,42.7C128,32,160,32,192,48C224,64,256,96,288,122.7C320,149,352,171,384,192C416,213,448,235,480,234.7C512,235,544,213,576,181.3C608,149,640,107,672,122.7C704,139,736,213,768,218.7C800,224,832,160,864,160C896,160,928,224,960,240C992,256,1024,224,1056,192C1088,160,1120,128,1152,112C1184,96,1216,96,1248,90.7C1280,85,1312,75,1344,85.3C1376,96,1408,128,1424,144L1440,160L1440,320L1424,320C1408,320,1376,320,1344,320C1312,320,1280,320,1248,320C1216,320,1184,320,1152,320C1120,320,1088,320,1056,320C1024,320,992,320,960,320C928,320,896,320,864,320C832,320,800,320,768,320C736,320,704,320,672,320C640,320,608,320,576,320C544,320,512,320,480,320C448,320,416,320,384,320C352,320,320,320,288,320C256,320,224,320,192,320C160,320,128,320,96,320C64,320,32,320,16,320L0,320Z"></path></svg>