<?xml version="1.0" standalone="no"?><svg xmlns="http://www.w3.org/2000/svg" viewBox="0 0 1440 320"><path fill="#f3f4f5" fill-opacity="1" d="M0,320L16,272C32,224,64,128,96,96C128,64,160,96,192,117.3C224,139,256,149,288,154.7C320,160,352,160,384,186.7C416,213,448,267,480,293.3C512,320,544,320,576,277.3C608,235,640,149,672,128C704,107,736,149,768,192C800,235,832,277,864,266.7C896,256,928,192,960,181.3C992,171,1024,213,1056,202.7C1088,192,1120,128,1152,112C1184,96,1216,128,1248,149.3C1280,171,1312,181,1344,197.3C1376,213,1408,235,1424,245.3L1440,256L1440,320L1424,320C1408,320,1376,320,1344,320C1312,320,1280,320,1248,320C1216,320,1184,320,1152,320C1120,320,1088,320,1056,320C1024,320,992,320,960,320C928,320,896,320,864,320C832,320,800,320,768,320C736,320,704,320,672,320C640,320,608,320,576,320C544,320,512,320,480,320C448,320,416,320,384,320C352,320,320,320,288,320C256,320,224,320,192,320C160,320,128,320,96,320C64,320,32,320,16,320L0,320Z"></path></svg>