<?xml version="1.0" standalone="no"?><svg xmlns="http://www.w3.org/2000/svg" viewBox="0 0 1440 320"><path fill="#ffd700" fill-opacity="1" d="M0,96L16,112C32,128,64,160,96,160C128,160,160,128,192,112C224,96,256,96,288,80C320,64,352,32,384,32C416,32,448,64,480,85.3C512,107,544,117,576,122.7C608,128,640,128,672,106.7C704,85,736,43,768,32C800,21,832,43,864,74.7C896,107,928,149,960,186.7C992,224,1024,256,1056,229.3C1088,203,1120,117,1152,106.7C1184,96,1216,160,1248,197.3C1280,235,1312,245,1344,224C1376,203,1408,149,1424,122.7L1440,96L1440,320L1424,320C1408,320,1376,320,1344,320C1312,320,1280,320,1248,320C1216,320,1184,320,1152,320C1120,320,1088,320,1056,320C1024,320,992,320,960,320C928,320,896,320,864,320C832,320,800,320,768,320C736,320,704,320,672,320C640,320,608,320,576,320C544,320,512,320,480,320C448,320,416,320,384,320C352,320,320,320,288,320C256,320,224,320,192,320C160,320,128,320,96,320C64,320,32,320,16,320L0,320Z"></path></svg>